<svg id="construction-24px" xmlns="http://www.w3.org/2000/svg" width="37" height="37" viewBox="0 0 37 37">
  <g id="Group_2" data-name="Group 2">
    <rect id="Rectangle_10" data-name="Rectangle 10" width="37" height="37" fill="none"/>
  </g>
  <g id="Group_4" data-name="Group 4" transform="translate(3.237 4.028)">
    <g id="Group_3" data-name="Group 3">
      <rect id="Rectangle_11" data-name="Rectangle 11" width="4.625" height="13.073" transform="translate(18.011 19.362) rotate(-45)"/>
      <path id="Path_8" data-name="Path 8" d="M25.842,14a5.4,5.4,0,0,0,5.4-5.4,5.327,5.327,0,0,0-.632-2.467L26.443,10.3,24.146,8l4.163-4.162a5.327,5.327,0,0,0-2.467-.632,5.4,5.4,0,0,0-5.4,5.4,5.257,5.257,0,0,0,.324,1.788l-2.852,2.852L15.173,10.5l1.095-1.095L14.094,7.234l3.268-3.268a4.624,4.624,0,0,0-6.537,0L5.368,9.423,7.542,11.6H3.195L2.1,12.691l5.457,5.457,1.095-1.095V12.691l2.174,2.174L11.92,13.77l2.744,2.744L3.241,27.938l3.268,3.268L24.053,13.678A5.257,5.257,0,0,0,25.842,14Z" transform="translate(-2.1 -2.612)"/>
    </g>
  </g>
</svg>
